PathFileType	4	(x/y/z)	S10_M20_T58
DataRate	CameraRate	NumFrames	NumMarkers	Units	OrigDataRate	OrigDataStartFrame	OrigNumFrames
240	240	11	51	mm	240	270	538
Frame#	Time	Sternum			R.Acromium			L.Acromium			Top.Head			R.ASIS			L.ASIS			R.PSIS			L.PSIS			R.Great.Tro			L.Great.Tro			R.Iliac.Crest			L.Iliac.Crest			V.Sacral			R.Thigh.Upper.Post			R.Thigh.Lower.Ant			R.Thigh.Lower.Post			R.Thigh.Upper.Ant			R.Knee.Lat			R.Knee.Med			R.Shank.Upper.Post			R.Shank.Lower.Ant			R.Shank.Lower.Post			R.Shank.Upper.Ant			R.Ankle.Lat			R.Ankle.Med			R.Heel.Upper			R.Heel.Med			R.Heel.Lat			R.Toe.Lat			R.Toe.Med			R.Toe.Tip			L.Thigh.Upper.Post			L.Thigh.Lower.Ant			L.Thigh.Lower.Post			L.Thigh.Upper.Ant			L.Knee.Lat			L.Knee.Med			L.Shank.Upper.Post			L.Shank.Lower.Ant			L.Shank.Lower.Post			L.Shank.Upper.Ant			L.Ankle.Lat			L.Ankle.Med			L.Heel.Upper			L.Heel.Med			L.Heel.Lat			L.Toe.Lat			L.Toe.Med			L.Toe.Tip			Cervical.Spine			Back			
		X1	Y1	Z1	X2	Y2	Z2	X3	Y3	Z3	X4	Y4	Z4	X5	Y5	Z5	X6	Y6	Z6	X7	Y7	Z7	X8	Y8	Z8	X9	Y9	Z9	X10	Y10	Z10	X11	Y11	Z11	X12	Y12	Z12	X13	Y13	Z13	X14	Y14	Z14	X15	Y15	Z15	X16	Y16	Z16	X17	Y17	Z17	X18	Y18	Z18	X19	Y19	Z19	X20	Y20	Z20	X21	Y21	Z21	X22	Y22	Z22	X23	Y23	Z23	X24	Y24	Z24	X25	Y25	Z25	X26	Y26	Z26	X27	Y27	Z27	X28	Y28	Z28	X29	Y29	Z29	X30	Y30	Z30	X31	Y31	Z31	X32	Y32	Z32	X33	Y33	Z33	X34	Y34	Z34	X35	Y35	Z35	X36	Y36	Z36	X37	Y37	Z37	X38	Y38	Z38	X39	Y39	Z39	X40	Y40	Z40	X41	Y41	Z41	X42	Y42	Z42	X43	Y43	Z43	X44	Y44	Z44	X45	Y45	Z45	X46	Y46	Z46	X47	Y47	Z47	X48	Y48	Z48	X49	Y49	Z49	X50	Y50	Z50	X51	Y51	Z51	

270	1.1208	626.31	1290.7	324.34	518.76	1440	487.95	489.52	1470.8	182.79	486.11	1760.3	370.76	578.65	1011.5	435.05	572.32	1031.1	205.55	375.54	1036	352.31	379.16	1042.7	270.27	506.27	935.32	506.73	511.44	969.18	145.96	485.98	1093.8	481.87	499.26	1106.2	179.93	355.72	1005.3	313.39	512.33	722.04	488.5	560.96	643.59	443.62	499.38	634.35	473.21	575.98	733.11	454.93	485.08	510.79	428.21	465.49	521.13	303.24	385.26	295	428.55	440.32	225.74	402.81	376.8	221.69	418.43	456.45	300.67	411	375.85	113.57	392.29	378.55	127.31	313.61	305.47	68.513	348.89	312.75	40.025	322.56	310.26	45.965	384.42	483.47	41.525	423.22	509.04	42.248	312.35	569.6	56.848	354.24	585.99	694.26	133.04	684.9	649.38	150.36	625.18	608.58	150.48	653.98	733.41	133.59	676.38	543.84	155.54	705.2	536.64	284.62	547.17	372.07	156.87	578.66	265.8	156.77	523.72	298.02	162.1	603.1	338.83	151.64	507.66	167.43	164.79	535.91	170.65	246.66	441.19	155.94	214.19	444.07	122.96	246.89	435.01	125.25	182.74	594.08	59.57	133.44	631.72	60.434	235.65	682.02	59.341	186.22	425.27	1503.5	356.25	342.86	1295.5	338.97
271	1.125	630.85	1290.5	324.3	523.9	1440.3	487.84	493.59	1470.3	182.79	491.19	1760.1	370.38	583.02	1011.1	435.02	576.95	1031.1	205.54	380.02	1035.8	352.08	383.69	1042.7	270.06	510.24	934.94	506.6	516.22	969.4	145.8	490.37	1093.3	481.84	503.83	1106.3	179.94	360.22	1005.1	313.1	514.85	721.77	488.44	563.03	642.97	443.67	501.38	634.17	473.14	578.66	732.33	454.99	486.02	510.67	428.34	466.9	521.03	303.25	385.62	295.18	428.57	440.59	225.81	402.93	377.01	221.89	418.37	456.89	300.69	411.14	375.98	113.67	392.26	378.8	127.46	313.6	305.53	68.589	348.8	312.82	40.066	322.53	310.29	46.083	384.36	483.49	41.528	423.21	509	42.21	312.35	569.66	56.774	354.27	592.22	694.75	132.92	691.25	650.24	151.08	631.54	609.2	150.57	660.08	734.16	134.18	683.1	544.49	156.05	710.95	537.44	285.21	557.54	369.45	156.87	591.64	263.99	156.79	535.87	294.88	161.95	614.22	337.6	151.71	522.99	163.91	164.46	551.23	167.53	246.35	456.78	150.46	213.89	460.58	117.49	246.53	451.46	119.71	182.41	612.23	58.409	132.9	649.82	59.889	235.13	700.17	60.295	185.69	429.98	1503.4	356.39	347.43	1295.4	339.47
272	1.1292	635.4	1290.2	324.23	529.04	1440.4	487.72	497.7	1469.8	182.78	496.26	1759.9	369.99	587.4	1010.7	434.98	581.57	1031.1	205.52	384.52	1035.6	351.85	388.24	1042.5	269.85	514.25	934.54	506.47	520.99	969.56	145.65	494.79	1092.9	481.8	508.44	1106.2	179.93	364.74	1004.9	312.83	517.4	721.48	488.37	565.12	642.34	443.69	503.41	633.98	473.06	581.36	731.53	455.03	486.98	510.55	428.46	468.3	520.95	303.27	385.99	295.36	428.59	440.88	225.88	403.04	377.23	222.08	418.31	457.34	300.7	411.26	376.1	113.78	392.24	379.06	127.61	313.58	305.6	68.664	348.72	312.88	40.106	322.49	310.33	46.205	384.29	483.51	41.533	423.19	508.97	42.169	312.35	569.71	56.7	354.31	598.31	695.15	132.85	697.47	650.98	151.79	637.77	609.71	150.69	666.06	734.8	134.78	689.7	545.04	156.57	716.61	538.13	285.79	567.93	366.79	156.85	604.65	262.24	156.8	548.06	291.74	161.79	625.34	336.37	151.78	538.41	160.47	164.11	566.62	164.49	246.03	472.52	145.1	213.57	477.23	112.15	246.16	468.06	114.31	182.07	630.4	57.374	132.39	667.92	59.482	234.63	718.29	61.365	185.19	434.71	1503.2	356.52	352.01	1295.1	339.96
273	1.1333	639.97	1289.9	324.15	534.19	1440.5	487.58	501.83	1469.3	182.76	501.33	1759.6	369.59	591.81	1010.2	434.92	586.19	1031	205.48	389.03	1035.3	351.63	392.79	1042.3	269.65	518.28	934.1	506.33	525.73	969.65	145.48	499.23	1092.4	481.75	513.09	1106.1	179.91	369.27	1004.7	312.56	519.98	721.16	488.28	567.23	641.69	443.7	505.46	633.78	472.98	584.08	730.72	455.06	487.97	510.41	428.58	469.67	520.86	303.29	386.38	295.54	428.61	441.17	225.94	403.14	377.48	222.29	418.25	457.81	300.71	411.38	376.23	113.89	392.22	379.31	127.76	313.56	305.67	68.74	348.62	312.95	40.145	322.45	310.37	46.329	384.22	483.53	41.539	423.18	508.96	42.123	312.35	569.77	56.625	354.34	604.28	695.46	132.83	703.57	651.59	152.5	643.85	610.12	150.86	671.92	735.33	135.37	696.18	545.5	157.09	722.17	538.72	286.36	578.33	364.11	156.82	617.67	260.53	156.81	560.3	288.62	161.63	636.44	335.16	151.84	553.92	157.12	163.76	582.07	161.54	245.71	488.41	139.86	213.24	494.03	106.97	245.79	484.79	109.04	181.71	648.6	56.475	131.9	686.02	59.221	234.17	736.37	62.558	184.73	439.46	1503	356.63	356.61	1294.9	340.43
274	1.1375	644.56	1289.6	324.04	539.34	1440.6	487.43	506	1468.7	182.74	506.39	1759.3	369.19	596.25	1009.7	434.83	590.8	1030.9	205.43	393.56	1034.9	351.41	397.35	1042.1	269.46	522.35	933.63	506.19	530.46	969.66	145.32	503.7	1091.9	481.69	517.78	1106	179.86	373.82	1004.4	312.31	522.58	720.82	488.19	569.36	641.03	443.7	507.54	633.56	472.9	586.82	729.89	455.08	488.97	510.27	428.7	471.03	520.78	303.33	386.79	295.72	428.65	441.49	226	403.23	377.74	222.49	418.21	458.29	300.7	411.48	376.35	113.99	392.2	379.56	127.92	313.55	305.74	68.819	348.52	313.02	40.185	322.4	310.41	46.457	384.15	483.55	41.546	423.17	508.97	42.073	312.37	569.83	56.547	354.38	610.12	695.68	132.86	709.53	652.09	153.19	649.79	610.43	151.05	677.65	735.73	135.95	702.53	545.85	157.61	727.63	539.2	286.93	588.73	361.42	156.78	630.7	258.89	156.82	572.59	285.52	161.46	647.51	333.96	151.9	569.51	153.87	163.41	597.59	158.71	245.39	504.44	134.77	212.88	510.95	101.95	245.4	501.67	103.94	181.33	666.82	55.718	131.44	704.1	59.116	233.74	754.41	63.884	184.32	444.22	1502.7	356.72	361.23	1294.6	340.89
275	1.1417	649.15	1289.2	323.91	544.49	1440.6	487.27	510.19	1468.1	182.7	511.45	1759	368.77	600.71	1009.1	434.74	595.41	1030.7	205.37	398.11	1034.6	351.2	401.93	1041.8	269.27	526.45	933.13	506.04	535.17	969.61	145.16	508.2	1091.4	481.63	522.51	1105.8	179.81	378.38	1004	312.07	525.2	720.47	488.1	571.5	640.35	443.68	509.64	633.32	472.82	589.59	729.04	455.08	489.99	510.13	428.81	472.38	520.7	303.37	387.22	295.89	428.68	441.81	226.05	403.3	378.03	222.69	418.17	458.79	300.69	411.56	376.47	114.1	392.19	379.8	128.07	313.54	305.81	68.9	348.42	313.08	40.227	322.35	310.45	46.589	384.07	483.56	41.554	423.15	508.99	42.017	312.38	569.88	56.467	354.41	615.83	695.79	132.94	715.35	652.45	153.86	655.58	610.63	151.28	683.26	736.01	136.51	708.74	546.11	158.12	733	539.57	287.48	599.14	358.71	156.73	643.73	257.32	156.81	584.92	282.44	161.28	658.56	332.79	151.96	585.19	150.73	163.05	613.16	155.99	245.07	520.6	129.83	212.51	527.99	97.101	245	518.67	99	180.93	685.05	55.114	131.01	722.17	59.178	233.35	772.4	65.349	183.95	449.01	1502.4	356.8	365.86	1294.2	341.34
276	1.1458	653.77	1288.7	323.76	549.65	1440.5	487.1	514.41	1467.5	182.65	516.51	1758.6	368.34	605.2	1008.6	434.62	600.02	1030.5	205.3	402.67	1034.1	350.99	406.53	1041.5	269.08	530.58	932.6	505.89	539.87	969.48	144.99	512.73	1090.8	481.55	527.29	1105.6	179.74	382.95	1003.7	311.83	527.85	720.09	488	573.67	639.66	443.66	511.76	633.07	472.74	592.37	728.17	455.08	491.03	509.97	428.93	473.7	520.63	303.42	387.67	296.07	428.72	442.14	226.09	403.37	378.33	222.89	418.14	459.31	300.68	411.64	376.59	114.21	392.17	380.03	128.22	313.53	305.89	68.984	348.3	313.15	40.27	322.29	310.49	46.724	383.98	483.58	41.562	423.14	509.04	41.956	312.4	569.93	56.382	354.44	621.39	695.81	133.05	721.02	652.69	154.51	661.23	610.72	151.53	688.74	736.17	137.05	714.83	546.27	158.63	738.29	539.84	288.03	609.56	356	156.67	656.76	255.83	156.8	597.28	279.41	161.1	669.58	331.64	152.01	600.93	147.71	162.69	628.77	153.41	244.76	536.88	125.06	212.13	545.14	92.446	244.6	535.8	94.243	180.52	703.28	54.671	130.62	740.21	59.415	232.99	790.33	66.963	183.64	453.81	1502	356.86	370.51	1293.9	341.77
277	1.15	658.4	1288.3	323.59	554.81	1440.4	486.91	518.66	1466.9	182.6	521.56	1758.2	367.91	609.71	1007.9	434.49	604.63	1030.2	205.21	407.26	1033.7	350.79	411.14	1041.1	268.9	534.75	932.05	505.73	544.56	969.28	144.82	517.28	1090.2	481.47	532.11	1105.3	179.65	387.55	1003.2	311.61	530.53	719.69	487.89	575.85	638.96	443.62	513.9	632.81	472.67	595.18	727.29	455.06	492.1	509.82	429.05	475.02	520.55	303.49	388.14	296.25	428.77	442.47	226.13	403.42	378.65	223.1	418.11	459.83	300.66	411.71	376.7	114.33	392.17	380.26	128.38	313.52	305.96	69.073	348.19	313.22	40.316	322.23	310.53	46.864	383.89	483.59	41.569	423.13	509.1	41.889	312.43	569.99	56.293	354.46	626.82	695.73	133.2	726.55	652.8	155.13	666.72	610.7	151.81	694.09	736.21	137.57	720.79	546.32	159.12	743.49	540	288.55	619.97	353.3	156.6	669.77	254.42	156.78	609.67	276.43	160.92	680.56	330.53	152.06	616.75	144.82	162.33	644.42	150.97	244.45	553.28	120.46	211.72	562.38	87.991	244.19	553.03	89.679	180.1	721.51	54.4	130.26	758.21	59.837	232.67	808.2	68.734	183.37	458.63	1501.6	356.9	375.17	1293.4	342.17
278	1.1542	663.04	1287.7	323.4	559.97	1440.2	486.72	522.94	1466.2	182.52	526.61	1757.7	367.46	614.25	1007.3	434.35	609.26	1029.9	205.1	411.87	1033.2	350.59	415.77	1040.6	268.72	538.95	931.46	505.57	549.25	969	144.65	521.87	1089.5	481.38	536.98	1105	179.56	392.16	1002.8	311.4	533.23	719.28	487.79	578.04	638.24	443.59	516.05	632.54	472.6	598	726.4	455.04	493.18	509.65	429.16	476.32	520.47	303.56	388.62	296.42	428.82	442.82	226.17	403.47	378.99	223.3	418.09	460.37	300.64	411.78	376.81	114.44	392.17	380.49	128.54	313.52	306.04	69.167	348.07	313.28	40.366	322.16	310.58	47.008	383.8	483.6	41.576	423.11	509.17	41.818	312.46	570.04	56.198	354.48	632.11	695.55	133.38	731.93	652.78	155.71	672.07	610.56	152.11	699.31	736.12	138.05	726.62	546.28	159.6	748.6	540.05	289.06	630.37	350.61	156.53	682.76	253.1	156.74	622.08	273.5	160.74	691.49	329.47	152.11	632.62	142.08	161.98	660.09	148.68	244.15	569.78	116.05	211.31	579.7	83.749	243.79	570.36	85.318	179.67	739.73	54.311	129.94	776.16	60.452	232.39	825.99	70.673	183.15	463.47	1501.2	356.92	379.86	1293	342.56
279	1.1583	667.7	1287.2	323.19	565.14	1439.9	486.51	527.24	1465.5	182.44	531.66	1757.2	367.01	618.82	1006.6	434.19	613.9	1029.5	204.98	416.5	1032.6	350.4	420.43	1040.1	268.55	543.19	930.85	505.42	553.94	968.66	144.48	526.48	1088.8	481.29	541.89	1104.6	179.45	396.8	1002.3	311.19	535.96	718.85	487.69	580.26	637.51	443.55	518.22	632.26	472.53	600.85	725.49	455.01	494.28	509.49	429.28	477.61	520.38	303.64	389.13	296.6	428.87	443.17	226.21	403.51	379.34	223.51	418.07	460.92	300.62	411.84	376.92	114.56	392.17	380.71	128.71	313.52	306.12	69.266	347.94	313.35	40.42	322.09	310.63	47.158	383.7	483.62	41.581	423.1	509.26	41.744	312.49	570.09	56.097	354.5	637.26	695.26	133.59	737.15	652.63	156.26	677.26	610.32	152.42	704.41	735.92	138.5	732.32	546.14	160.06	753.64	540	289.55	640.76	347.94	156.45	695.72	251.88	156.7	634.51	270.63	160.56	702.39	328.44	152.15	648.54	139.49	161.64	675.78	146.56	243.86	586.36	111.84	210.89	597.1	79.729	243.38	587.77	81.17	179.25	757.92	54.413	129.66	794.06	61.271	232.15	843.71	72.787	182.98	468.33	1500.7	356.92	384.56	1292.5	342.92
280	1.1625	672.38	1286.6	322.95	570.31	1439.6	486.29	531.58	1464.7	182.34	536.71	1756.6	366.54	623.41	1005.9	434.03	618.56	1029	204.85	421.16	1032.1	350.21	425.1	1039.6	268.38	547.46	930.21	505.25	558.64	968.25	144.31	531.12	1088.1	481.19	546.85	1104.2	179.34	401.46	1001.7	310.99	538.71	718.41	487.59	582.48	636.77	443.51	520.41	631.97	472.47	603.71	724.56	454.97	495.41	509.32	429.4	478.9	520.29	303.73	389.65	296.78	428.93	443.52	226.25	403.54	379.7	223.71	418.06	461.49	300.61	411.89	377.02	114.68	392.18	380.93	128.88	313.51	306.19	69.372	347.81	313.42	40.48	322.01	310.68	47.315	383.59	483.64	41.585	423.09	509.36	41.667	312.53	570.14	55.988	354.52	642.27	694.87	133.82	742.24	652.35	156.76	682.31	609.97	152.76	709.38	735.59	138.91	737.9	545.89	160.5	758.6	539.84	290.01	651.13	345.28	156.37	708.65	250.75	156.65	646.95	267.84	160.38	713.23	327.47	152.19	664.5	137.06	161.3	691.48	144.61	243.59	603.03	107.84	210.46	614.55	75.941	242.98	605.26	77.244	178.82	776.07	54.719	129.42	811.89	62.302	231.95	861.33	75.089	182.86	473.2	1500.2	356.9	389.28	1291.9	343.26
